<mxfile host="app.diagrams.net" modified="2023-11-25T20:15:31.982Z" agent="Mozilla/5.0 (Windows NT 10.0; Win64; x64) AppleWebKit/537.36 (KHTML, like Gecko) Chrome/119.0.0.0 Safari/537.36" etag="5cvFOPXMKivwWsklFbYU" version="22.1.4" type="google">
  <diagram name="Page-1" id="c4acf3e9-155e-7222-9cf6-157b1a14988f">
    <mxGraphModel grid="1" page="1" gridSize="10" guides="1" tooltips="1" connect="1" arrows="1" fold="1" pageScale="1" pageWidth="850" pageHeight="1100" background="none" math="0" shadow="0">
      <root>
        <mxCell id="0" />
        <mxCell id="1" parent="0" />
        <mxCell id="_Nw4HZ8PcZJ2YnMAnOz8-16" style="edgeStyle=orthogonalEdgeStyle;rounded=0;orthogonalLoop=1;jettySize=auto;html=1;exitX=0.75;exitY=0;exitDx=0;exitDy=0;entryX=0.75;entryY=1;entryDx=0;entryDy=0;endArrow=none;endFill=0;" edge="1" parent="1" source="xuzwhfs-xxF4q0542Lo5-1" target="xuzwhfs-xxF4q0542Lo5-5">
          <mxGeometry relative="1" as="geometry" />
        </mxCell>
        <mxCell id="_Nw4HZ8PcZJ2YnMAnOz8-17" value="Requests" style="edgeLabel;html=1;align=center;verticalAlign=middle;resizable=0;points=[];" connectable="0" vertex="1" parent="_Nw4HZ8PcZJ2YnMAnOz8-16">
          <mxGeometry x="-0.0354" y="3" relative="1" as="geometry">
            <mxPoint as="offset" />
          </mxGeometry>
        </mxCell>
        <mxCell id="xuzwhfs-xxF4q0542Lo5-1" value="User" style="swimlane;fontStyle=0;childLayout=stackLayout;horizontal=1;startSize=26;fillColor=none;horizontalStack=0;resizeParent=1;resizeParentMax=0;resizeLast=0;collapsible=1;marginBottom=0;whiteSpace=wrap;html=1;" vertex="1" parent="1">
          <mxGeometry x="320" y="560" width="140" height="244" as="geometry" />
        </mxCell>
        <mxCell id="xuzwhfs-xxF4q0542Lo5-2" value="&amp;nbsp;" style="text;strokeColor=none;fillColor=none;align=left;verticalAlign=top;spacingLeft=4;spacingRight=4;overflow=hidden;rotatable=0;points=[[0,0.5],[1,0.5]];portConstraint=eastwest;whiteSpace=wrap;html=1;" vertex="1" parent="xuzwhfs-xxF4q0542Lo5-1">
          <mxGeometry y="26" width="140" height="26" as="geometry" />
        </mxCell>
        <mxCell id="_Nw4HZ8PcZJ2YnMAnOz8-14" value="&amp;nbsp;" style="text;strokeColor=none;fillColor=none;align=left;verticalAlign=top;spacingLeft=4;spacingRight=4;overflow=hidden;rotatable=0;points=[[0,0.5],[1,0.5]];portConstraint=eastwest;whiteSpace=wrap;html=1;" vertex="1" parent="xuzwhfs-xxF4q0542Lo5-1">
          <mxGeometry y="52" width="140" height="26" as="geometry" />
        </mxCell>
        <mxCell id="xuzwhfs-xxF4q0542Lo5-3" value="&amp;nbsp;" style="text;strokeColor=none;fillColor=none;align=left;verticalAlign=top;spacingLeft=4;spacingRight=4;overflow=hidden;rotatable=0;points=[[0,0.5],[1,0.5]];portConstraint=eastwest;whiteSpace=wrap;html=1;" vertex="1" parent="xuzwhfs-xxF4q0542Lo5-1">
          <mxGeometry y="78" width="140" height="26" as="geometry" />
        </mxCell>
        <mxCell id="_Nw4HZ8PcZJ2YnMAnOz8-1" value="&amp;nbsp;" style="text;strokeColor=none;fillColor=none;align=left;verticalAlign=top;spacingLeft=4;spacingRight=4;overflow=hidden;rotatable=0;points=[[0,0.5],[1,0.5]];portConstraint=eastwest;whiteSpace=wrap;html=1;" vertex="1" parent="xuzwhfs-xxF4q0542Lo5-1">
          <mxGeometry y="104" width="140" height="26" as="geometry" />
        </mxCell>
        <mxCell id="_Nw4HZ8PcZJ2YnMAnOz8-2" value="&amp;nbsp;" style="text;strokeColor=none;fillColor=none;align=left;verticalAlign=top;spacingLeft=4;spacingRight=4;overflow=hidden;rotatable=0;points=[[0,0.5],[1,0.5]];portConstraint=eastwest;whiteSpace=wrap;html=1;" vertex="1" parent="xuzwhfs-xxF4q0542Lo5-1">
          <mxGeometry y="130" width="140" height="26" as="geometry" />
        </mxCell>
        <mxCell id="_Nw4HZ8PcZJ2YnMAnOz8-46" value="&amp;nbsp;" style="text;strokeColor=none;fillColor=none;align=left;verticalAlign=top;spacingLeft=4;spacingRight=4;overflow=hidden;rotatable=0;points=[[0,0.5],[1,0.5]];portConstraint=eastwest;whiteSpace=wrap;html=1;" vertex="1" parent="xuzwhfs-xxF4q0542Lo5-1">
          <mxGeometry y="156" width="140" height="26" as="geometry" />
        </mxCell>
        <mxCell id="xuzwhfs-xxF4q0542Lo5-4" value="&amp;nbsp;" style="text;strokeColor=none;fillColor=none;align=left;verticalAlign=top;spacingLeft=4;spacingRight=4;overflow=hidden;rotatable=0;points=[[0,0.5],[1,0.5]];portConstraint=eastwest;whiteSpace=wrap;html=1;" vertex="1" parent="xuzwhfs-xxF4q0542Lo5-1">
          <mxGeometry y="182" width="140" height="62" as="geometry" />
        </mxCell>
        <mxCell id="xuzwhfs-xxF4q0542Lo5-5" value="service" style="swimlane;fontStyle=0;childLayout=stackLayout;horizontal=1;startSize=26;fillColor=none;horizontalStack=0;resizeParent=1;resizeParentMax=0;resizeLast=0;collapsible=1;marginBottom=0;whiteSpace=wrap;html=1;" vertex="1" parent="1">
          <mxGeometry x="320" y="347" width="140" height="104" as="geometry" />
        </mxCell>
        <mxCell id="xuzwhfs-xxF4q0542Lo5-6" value="&amp;nbsp;" style="text;strokeColor=none;fillColor=none;align=left;verticalAlign=top;spacingLeft=4;spacingRight=4;overflow=hidden;rotatable=0;points=[[0,0.5],[1,0.5]];portConstraint=eastwest;whiteSpace=wrap;html=1;" vertex="1" parent="xuzwhfs-xxF4q0542Lo5-5">
          <mxGeometry y="26" width="140" height="26" as="geometry" />
        </mxCell>
        <mxCell id="xuzwhfs-xxF4q0542Lo5-7" value="&amp;nbsp;" style="text;strokeColor=none;fillColor=none;align=left;verticalAlign=top;spacingLeft=4;spacingRight=4;overflow=hidden;rotatable=0;points=[[0,0.5],[1,0.5]];portConstraint=eastwest;whiteSpace=wrap;html=1;" vertex="1" parent="xuzwhfs-xxF4q0542Lo5-5">
          <mxGeometry y="52" width="140" height="26" as="geometry" />
        </mxCell>
        <mxCell id="xuzwhfs-xxF4q0542Lo5-8" value="&amp;nbsp;" style="text;strokeColor=none;fillColor=none;align=left;verticalAlign=top;spacingLeft=4;spacingRight=4;overflow=hidden;rotatable=0;points=[[0,0.5],[1,0.5]];portConstraint=eastwest;whiteSpace=wrap;html=1;" vertex="1" parent="xuzwhfs-xxF4q0542Lo5-5">
          <mxGeometry y="78" width="140" height="26" as="geometry" />
        </mxCell>
        <mxCell id="xuzwhfs-xxF4q0542Lo5-9" value="paymentMethod" style="swimlane;fontStyle=0;childLayout=stackLayout;horizontal=1;startSize=26;fillColor=none;horizontalStack=0;resizeParent=1;resizeParentMax=0;resizeLast=0;collapsible=1;marginBottom=0;whiteSpace=wrap;html=1;" vertex="1" parent="1">
          <mxGeometry x="590" y="347" width="140" height="104" as="geometry" />
        </mxCell>
        <mxCell id="xuzwhfs-xxF4q0542Lo5-10" value="&amp;nbsp;" style="text;strokeColor=none;fillColor=none;align=left;verticalAlign=top;spacingLeft=4;spacingRight=4;overflow=hidden;rotatable=0;points=[[0,0.5],[1,0.5]];portConstraint=eastwest;whiteSpace=wrap;html=1;" vertex="1" parent="xuzwhfs-xxF4q0542Lo5-9">
          <mxGeometry y="26" width="140" height="26" as="geometry" />
        </mxCell>
        <mxCell id="xuzwhfs-xxF4q0542Lo5-12" value="&amp;nbsp;" style="text;strokeColor=none;fillColor=none;align=left;verticalAlign=top;spacingLeft=4;spacingRight=4;overflow=hidden;rotatable=0;points=[[0,0.5],[1,0.5]];portConstraint=eastwest;whiteSpace=wrap;html=1;" vertex="1" parent="xuzwhfs-xxF4q0542Lo5-9">
          <mxGeometry y="52" width="140" height="26" as="geometry" />
        </mxCell>
        <mxCell id="xuzwhfs-xxF4q0542Lo5-11" value="&amp;nbsp;" style="text;strokeColor=none;fillColor=none;align=left;verticalAlign=top;spacingLeft=4;spacingRight=4;overflow=hidden;rotatable=0;points=[[0,0.5],[1,0.5]];portConstraint=eastwest;whiteSpace=wrap;html=1;" vertex="1" parent="xuzwhfs-xxF4q0542Lo5-9">
          <mxGeometry y="78" width="140" height="26" as="geometry" />
        </mxCell>
        <mxCell id="xuzwhfs-xxF4q0542Lo5-13" value="review" style="swimlane;fontStyle=0;childLayout=stackLayout;horizontal=1;startSize=26;fillColor=none;horizontalStack=0;resizeParent=1;resizeParentMax=0;resizeLast=0;collapsible=1;marginBottom=0;whiteSpace=wrap;html=1;" vertex="1" parent="1">
          <mxGeometry x="50" y="560" width="140" height="52" as="geometry" />
        </mxCell>
        <mxCell id="xuzwhfs-xxF4q0542Lo5-15" value="&amp;nbsp;" style="text;strokeColor=none;fillColor=none;align=left;verticalAlign=top;spacingLeft=4;spacingRight=4;overflow=hidden;rotatable=0;points=[[0,0.5],[1,0.5]];portConstraint=eastwest;whiteSpace=wrap;html=1;" vertex="1" parent="xuzwhfs-xxF4q0542Lo5-13">
          <mxGeometry y="26" width="140" height="26" as="geometry" />
        </mxCell>
        <mxCell id="xuzwhfs-xxF4q0542Lo5-21" value="timeSlot" style="swimlane;fontStyle=0;childLayout=stackLayout;horizontal=1;startSize=26;fillColor=none;horizontalStack=0;resizeParent=1;resizeParentMax=0;resizeLast=0;collapsible=1;marginBottom=0;whiteSpace=wrap;html=1;" vertex="1" parent="1">
          <mxGeometry x="590" y="560" width="140" height="166" as="geometry" />
        </mxCell>
        <mxCell id="xuzwhfs-xxF4q0542Lo5-22" value="&amp;nbsp;" style="text;strokeColor=none;fillColor=none;align=left;verticalAlign=top;spacingLeft=4;spacingRight=4;overflow=hidden;rotatable=0;points=[[0,0.5],[1,0.5]];portConstraint=eastwest;whiteSpace=wrap;html=1;" vertex="1" parent="xuzwhfs-xxF4q0542Lo5-21">
          <mxGeometry y="26" width="140" height="26" as="geometry" />
        </mxCell>
        <mxCell id="xuzwhfs-xxF4q0542Lo5-23" value="&amp;nbsp;" style="text;strokeColor=none;fillColor=none;align=left;verticalAlign=top;spacingLeft=4;spacingRight=4;overflow=hidden;rotatable=0;points=[[0,0.5],[1,0.5]];portConstraint=eastwest;whiteSpace=wrap;html=1;" vertex="1" parent="xuzwhfs-xxF4q0542Lo5-21">
          <mxGeometry y="52" width="140" height="26" as="geometry" />
        </mxCell>
        <mxCell id="_Nw4HZ8PcZJ2YnMAnOz8-4" value="&amp;nbsp;" style="text;strokeColor=none;fillColor=none;align=left;verticalAlign=top;spacingLeft=4;spacingRight=4;overflow=hidden;rotatable=0;points=[[0,0.5],[1,0.5]];portConstraint=eastwest;whiteSpace=wrap;html=1;" vertex="1" parent="xuzwhfs-xxF4q0542Lo5-21">
          <mxGeometry y="78" width="140" height="26" as="geometry" />
        </mxCell>
        <mxCell id="xuzwhfs-xxF4q0542Lo5-24" value="&amp;nbsp;" style="text;strokeColor=none;fillColor=none;align=left;verticalAlign=top;spacingLeft=4;spacingRight=4;overflow=hidden;rotatable=0;points=[[0,0.5],[1,0.5]];portConstraint=eastwest;whiteSpace=wrap;html=1;" vertex="1" parent="xuzwhfs-xxF4q0542Lo5-21">
          <mxGeometry y="104" width="140" height="62" as="geometry" />
        </mxCell>
        <mxCell id="xuzwhfs-xxF4q0542Lo5-25" value="proposal" style="swimlane;fontStyle=0;childLayout=stackLayout;horizontal=1;startSize=26;fillColor=none;horizontalStack=0;resizeParent=1;resizeParentMax=0;resizeLast=0;collapsible=1;marginBottom=0;whiteSpace=wrap;html=1;" vertex="1" parent="1">
          <mxGeometry x="50" y="704" width="140" height="52" as="geometry" />
        </mxCell>
        <mxCell id="xuzwhfs-xxF4q0542Lo5-26" value="&amp;nbsp;" style="text;strokeColor=none;fillColor=none;align=left;verticalAlign=top;spacingLeft=4;spacingRight=4;overflow=hidden;rotatable=0;points=[[0,0.5],[1,0.5]];portConstraint=eastwest;whiteSpace=wrap;html=1;" vertex="1" parent="xuzwhfs-xxF4q0542Lo5-25">
          <mxGeometry y="26" width="140" height="26" as="geometry" />
        </mxCell>
        <mxCell id="_Nw4HZ8PcZJ2YnMAnOz8-5" style="edgeStyle=orthogonalEdgeStyle;rounded=0;orthogonalLoop=1;jettySize=auto;html=1;endArrow=none;endFill=0;" edge="1" parent="1">
          <mxGeometry relative="1" as="geometry">
            <mxPoint x="340" y="560" as="sourcePoint" />
            <mxPoint x="340" y="451" as="targetPoint" />
            <Array as="points">
              <mxPoint x="340" y="560" />
              <mxPoint x="340" y="451" />
            </Array>
          </mxGeometry>
        </mxCell>
        <mxCell id="_Nw4HZ8PcZJ2YnMAnOz8-6" value="Creates" style="edgeLabel;html=1;align=center;verticalAlign=middle;resizable=0;points=[];" connectable="0" vertex="1" parent="_Nw4HZ8PcZJ2YnMAnOz8-5">
          <mxGeometry x="-0.2233" y="1" relative="1" as="geometry">
            <mxPoint y="-8" as="offset" />
          </mxGeometry>
        </mxCell>
        <mxCell id="_Nw4HZ8PcZJ2YnMAnOz8-7" value="Writes" style="edgeStyle=orthogonalEdgeStyle;rounded=0;orthogonalLoop=1;jettySize=auto;html=1;entryX=1;entryY=0.5;entryDx=0;entryDy=0;endArrow=none;endFill=0;" edge="1" parent="1" source="_Nw4HZ8PcZJ2YnMAnOz8-11">
          <mxGeometry relative="1" as="geometry">
            <Array as="points">
              <mxPoint x="320" y="680" />
              <mxPoint x="255" y="680" />
              <mxPoint x="255" y="599" />
            </Array>
            <mxPoint x="190" y="599" as="targetPoint" />
          </mxGeometry>
        </mxCell>
        <mxCell id="_Nw4HZ8PcZJ2YnMAnOz8-11" value="1" style="text;html=1;align=center;verticalAlign=middle;resizable=0;points=[];autosize=1;strokeColor=none;fillColor=none;" vertex="1" parent="1">
          <mxGeometry x="295" y="682" width="30" height="30" as="geometry" />
        </mxCell>
        <mxCell id="_Nw4HZ8PcZJ2YnMAnOz8-12" value="0...*" style="text;html=1;align=center;verticalAlign=middle;resizable=0;points=[];autosize=1;strokeColor=none;fillColor=none;" vertex="1" parent="1">
          <mxGeometry x="185" y="578" width="40" height="30" as="geometry" />
        </mxCell>
        <mxCell id="_Nw4HZ8PcZJ2YnMAnOz8-13" style="edgeStyle=orthogonalEdgeStyle;rounded=0;orthogonalLoop=1;jettySize=auto;html=1;exitX=0;exitY=0.5;exitDx=0;exitDy=0;entryX=1;entryY=0.5;entryDx=0;entryDy=0;endArrow=none;endFill=0;" edge="1" parent="1" source="xuzwhfs-xxF4q0542Lo5-10" target="xuzwhfs-xxF4q0542Lo5-6">
          <mxGeometry relative="1" as="geometry" />
        </mxCell>
        <mxCell id="_Nw4HZ8PcZJ2YnMAnOz8-38" value="Pays For" style="edgeLabel;html=1;align=center;verticalAlign=middle;resizable=0;points=[];" connectable="0" vertex="1" parent="_Nw4HZ8PcZJ2YnMAnOz8-13">
          <mxGeometry x="0.0088" y="1" relative="1" as="geometry">
            <mxPoint as="offset" />
          </mxGeometry>
        </mxCell>
        <mxCell id="_Nw4HZ8PcZJ2YnMAnOz8-18" value="0...*" style="text;html=1;align=center;verticalAlign=middle;resizable=0;points=[];autosize=1;strokeColor=none;fillColor=none;" vertex="1" parent="1">
          <mxGeometry x="300" y="460" width="40" height="30" as="geometry" />
        </mxCell>
        <mxCell id="_Nw4HZ8PcZJ2YnMAnOz8-19" value="1" style="text;html=1;align=center;verticalAlign=middle;resizable=0;points=[];autosize=1;strokeColor=none;fillColor=none;" vertex="1" parent="1">
          <mxGeometry x="305" y="528" width="30" height="30" as="geometry" />
        </mxCell>
        <mxCell id="_Nw4HZ8PcZJ2YnMAnOz8-20" value="0...*" style="text;html=1;align=center;verticalAlign=middle;resizable=0;points=[];autosize=1;strokeColor=none;fillColor=none;" vertex="1" parent="1">
          <mxGeometry x="425" y="451" width="40" height="30" as="geometry" />
        </mxCell>
        <mxCell id="_Nw4HZ8PcZJ2YnMAnOz8-21" value="1" style="text;html=1;align=center;verticalAlign=middle;resizable=0;points=[];autosize=1;strokeColor=none;fillColor=none;" vertex="1" parent="1">
          <mxGeometry x="425" y="530" width="30" height="30" as="geometry" />
        </mxCell>
        <mxCell id="_Nw4HZ8PcZJ2YnMAnOz8-22" value="1" style="text;html=1;align=center;verticalAlign=middle;resizable=0;points=[];autosize=1;strokeColor=none;fillColor=none;" vertex="1" parent="1">
          <mxGeometry x="560" y="358" width="30" height="30" as="geometry" />
        </mxCell>
        <mxCell id="_Nw4HZ8PcZJ2YnMAnOz8-23" value="0...*" style="text;html=1;align=center;verticalAlign=middle;resizable=0;points=[];autosize=1;strokeColor=none;fillColor=none;" vertex="1" parent="1">
          <mxGeometry x="460" y="358" width="40" height="30" as="geometry" />
        </mxCell>
        <mxCell id="_Nw4HZ8PcZJ2YnMAnOz8-26" style="edgeStyle=orthogonalEdgeStyle;rounded=0;orthogonalLoop=1;jettySize=auto;html=1;exitX=1;exitY=0.5;exitDx=0;exitDy=0;entryX=0;entryY=0.5;entryDx=0;entryDy=0;endArrow=none;endFill=0;" edge="1" parent="1" source="xuzwhfs-xxF4q0542Lo5-2" target="xuzwhfs-xxF4q0542Lo5-11">
          <mxGeometry relative="1" as="geometry" />
        </mxCell>
        <mxCell id="_Nw4HZ8PcZJ2YnMAnOz8-27" value="Owns" style="edgeLabel;html=1;align=center;verticalAlign=middle;resizable=0;points=[];" connectable="0" vertex="1" parent="_Nw4HZ8PcZJ2YnMAnOz8-26">
          <mxGeometry x="0.0515" relative="1" as="geometry">
            <mxPoint as="offset" />
          </mxGeometry>
        </mxCell>
        <mxCell id="_Nw4HZ8PcZJ2YnMAnOz8-28" value="0...*" style="text;html=1;align=center;verticalAlign=middle;resizable=0;points=[];autosize=1;strokeColor=none;fillColor=none;" vertex="1" parent="1">
          <mxGeometry x="550" y="410" width="40" height="30" as="geometry" />
        </mxCell>
        <mxCell id="_Nw4HZ8PcZJ2YnMAnOz8-29" value="1" style="text;html=1;align=center;verticalAlign=middle;resizable=0;points=[];autosize=1;strokeColor=none;fillColor=none;" vertex="1" parent="1">
          <mxGeometry x="455" y="578" width="30" height="30" as="geometry" />
        </mxCell>
        <mxCell id="_Nw4HZ8PcZJ2YnMAnOz8-30" style="edgeStyle=orthogonalEdgeStyle;rounded=0;orthogonalLoop=1;jettySize=auto;html=1;exitX=1;exitY=0.5;exitDx=0;exitDy=0;entryX=0;entryY=0.5;entryDx=0;entryDy=0;endArrow=none;endFill=0;" edge="1" parent="1" source="xuzwhfs-xxF4q0542Lo5-3" target="_Nw4HZ8PcZJ2YnMAnOz8-4">
          <mxGeometry relative="1" as="geometry" />
        </mxCell>
        <mxCell id="_Nw4HZ8PcZJ2YnMAnOz8-31" value="Opens Up" style="edgeLabel;html=1;align=center;verticalAlign=middle;resizable=0;points=[];" connectable="0" vertex="1" parent="_Nw4HZ8PcZJ2YnMAnOz8-30">
          <mxGeometry x="-0.0286" y="-1" relative="1" as="geometry">
            <mxPoint as="offset" />
          </mxGeometry>
        </mxCell>
        <mxCell id="_Nw4HZ8PcZJ2YnMAnOz8-32" value="1" style="text;html=1;align=center;verticalAlign=middle;resizable=0;points=[];autosize=1;strokeColor=none;fillColor=none;" vertex="1" parent="1">
          <mxGeometry x="455" y="628" width="30" height="30" as="geometry" />
        </mxCell>
        <mxCell id="_Nw4HZ8PcZJ2YnMAnOz8-33" value="0...*" style="text;html=1;align=center;verticalAlign=middle;resizable=0;points=[];autosize=1;strokeColor=none;fillColor=none;" vertex="1" parent="1">
          <mxGeometry x="555" y="628" width="40" height="30" as="geometry" />
        </mxCell>
        <mxCell id="_Nw4HZ8PcZJ2YnMAnOz8-39" style="edgeStyle=orthogonalEdgeStyle;rounded=0;orthogonalLoop=1;jettySize=auto;html=1;exitX=0;exitY=0.5;exitDx=0;exitDy=0;entryX=0.5;entryY=0;entryDx=0;entryDy=0;endArrow=none;endFill=0;" edge="1" parent="1" source="xuzwhfs-xxF4q0542Lo5-7" target="xuzwhfs-xxF4q0542Lo5-13">
          <mxGeometry relative="1" as="geometry">
            <Array as="points">
              <mxPoint x="320" y="400" />
              <mxPoint x="80" y="400" />
              <mxPoint x="80" y="560" />
            </Array>
          </mxGeometry>
        </mxCell>
        <mxCell id="_Nw4HZ8PcZJ2YnMAnOz8-40" value="Is Rated By" style="edgeLabel;html=1;align=center;verticalAlign=middle;resizable=0;points=[];" connectable="0" vertex="1" parent="_Nw4HZ8PcZJ2YnMAnOz8-39">
          <mxGeometry x="-0.3423" y="-1" relative="1" as="geometry">
            <mxPoint as="offset" />
          </mxGeometry>
        </mxCell>
        <mxCell id="_Nw4HZ8PcZJ2YnMAnOz8-41" value="1" style="text;html=1;align=center;verticalAlign=middle;resizable=0;points=[];autosize=1;strokeColor=none;fillColor=none;" vertex="1" parent="1">
          <mxGeometry x="56" y="535" width="30" height="30" as="geometry" />
        </mxCell>
        <mxCell id="_Nw4HZ8PcZJ2YnMAnOz8-42" value="1" style="text;html=1;align=center;verticalAlign=middle;resizable=0;points=[];autosize=1;strokeColor=none;fillColor=none;" vertex="1" parent="1">
          <mxGeometry x="295" y="378" width="30" height="30" as="geometry" />
        </mxCell>
        <mxCell id="_Nw4HZ8PcZJ2YnMAnOz8-43" value="0...*" style="text;html=1;align=center;verticalAlign=middle;resizable=0;points=[];autosize=1;strokeColor=none;fillColor=none;" vertex="1" parent="1">
          <mxGeometry x="190" y="720" width="40" height="30" as="geometry" />
        </mxCell>
        <mxCell id="_Nw4HZ8PcZJ2YnMAnOz8-44" value="1" style="text;html=1;align=center;verticalAlign=middle;resizable=0;points=[];autosize=1;strokeColor=none;fillColor=none;" vertex="1" parent="1">
          <mxGeometry x="290" y="720" width="30" height="30" as="geometry" />
        </mxCell>
        <mxCell id="_Nw4HZ8PcZJ2YnMAnOz8-45" value="Samwise Service App - Domain Model" style="text;html=1;align=center;verticalAlign=middle;resizable=0;points=[];autosize=1;strokeColor=none;fillColor=none;fontStyle=1;fontSize=16;" vertex="1" parent="1">
          <mxGeometry x="245" y="280" width="310" height="30" as="geometry" />
        </mxCell>
        <mxCell id="_Nw4HZ8PcZJ2YnMAnOz8-47" style="edgeStyle=orthogonalEdgeStyle;rounded=0;orthogonalLoop=1;jettySize=auto;html=1;exitX=1;exitY=0.5;exitDx=0;exitDy=0;entryX=-0.02;entryY=0.03;entryDx=0;entryDy=0;entryPerimeter=0;endArrow=none;endFill=0;" edge="1" parent="1" source="xuzwhfs-xxF4q0542Lo5-26" target="xuzwhfs-xxF4q0542Lo5-4">
          <mxGeometry relative="1" as="geometry" />
        </mxCell>
        <mxCell id="_Nw4HZ8PcZJ2YnMAnOz8-48" value="Initiates" style="edgeLabel;html=1;align=center;verticalAlign=middle;resizable=0;points=[];" connectable="0" vertex="1" parent="_Nw4HZ8PcZJ2YnMAnOz8-47">
          <mxGeometry x="-0.158" relative="1" as="geometry">
            <mxPoint as="offset" />
          </mxGeometry>
        </mxCell>
        <mxCell id="_Nw4HZ8PcZJ2YnMAnOz8-49" style="edgeStyle=orthogonalEdgeStyle;rounded=0;orthogonalLoop=1;jettySize=auto;html=1;exitX=0;exitY=0.5;exitDx=0;exitDy=0;entryX=0.023;entryY=0.048;entryDx=0;entryDy=0;entryPerimeter=0;endArrow=none;endFill=0;" edge="1" parent="1" source="xuzwhfs-xxF4q0542Lo5-26" target="xuzwhfs-xxF4q0542Lo5-6">
          <mxGeometry relative="1" as="geometry" />
        </mxCell>
        <mxCell id="_Nw4HZ8PcZJ2YnMAnOz8-50" value="Proposed For" style="edgeLabel;html=1;align=center;verticalAlign=middle;resizable=0;points=[];" connectable="0" vertex="1" parent="_Nw4HZ8PcZJ2YnMAnOz8-49">
          <mxGeometry x="0.32" y="1" relative="1" as="geometry">
            <mxPoint as="offset" />
          </mxGeometry>
        </mxCell>
        <mxCell id="_Nw4HZ8PcZJ2YnMAnOz8-51" value="1" style="text;html=1;align=center;verticalAlign=middle;resizable=0;points=[];autosize=1;strokeColor=none;fillColor=none;" vertex="1" parent="1">
          <mxGeometry x="295" y="348" width="30" height="30" as="geometry" />
        </mxCell>
        <mxCell id="_Nw4HZ8PcZJ2YnMAnOz8-52" value="0...*" style="text;html=1;align=center;verticalAlign=middle;resizable=0;points=[];autosize=1;strokeColor=none;fillColor=none;" vertex="1" parent="1">
          <mxGeometry x="16" y="738" width="40" height="30" as="geometry" />
        </mxCell>
        <mxCell id="pThfLaDxbjiMzp-Kh7dE-1" value="reservation" style="swimlane;fontStyle=0;childLayout=stackLayout;horizontal=1;startSize=26;fillColor=none;horizontalStack=0;resizeParent=1;resizeParentMax=0;resizeLast=0;collapsible=1;marginBottom=0;whiteSpace=wrap;html=1;" vertex="1" parent="1">
          <mxGeometry x="120" y="424" width="140" height="76" as="geometry" />
        </mxCell>
        <mxCell id="pThfLaDxbjiMzp-Kh7dE-5" style="edgeStyle=orthogonalEdgeStyle;rounded=0;orthogonalLoop=1;jettySize=auto;html=1;exitX=1;exitY=0.5;exitDx=0;exitDy=0;entryX=-0.013;entryY=-0.12;entryDx=0;entryDy=0;entryPerimeter=0;endArrow=none;endFill=0;" edge="1" parent="1" target="xuzwhfs-xxF4q0542Lo5-3">
          <mxGeometry relative="1" as="geometry">
            <mxPoint x="260" y="463" as="sourcePoint" />
            <Array as="points">
              <mxPoint x="280" y="463" />
              <mxPoint x="280" y="635" />
            </Array>
          </mxGeometry>
        </mxCell>
        <mxCell id="pThfLaDxbjiMzp-Kh7dE-6" value="Schedules" style="edgeLabel;html=1;align=center;verticalAlign=middle;resizable=0;points=[];" connectable="0" vertex="1" parent="pThfLaDxbjiMzp-Kh7dE-5">
          <mxGeometry x="-0.1348" y="-3" relative="1" as="geometry">
            <mxPoint as="offset" />
          </mxGeometry>
        </mxCell>
        <mxCell id="pThfLaDxbjiMzp-Kh7dE-7" value="0..*" style="text;html=1;align=center;verticalAlign=middle;resizable=0;points=[];autosize=1;strokeColor=none;fillColor=none;" vertex="1" parent="1">
          <mxGeometry x="260" y="440" width="40" height="30" as="geometry" />
        </mxCell>
        <mxCell id="pThfLaDxbjiMzp-Kh7dE-8" value="1" style="text;html=1;align=center;verticalAlign=middle;resizable=0;points=[];autosize=1;strokeColor=none;fillColor=none;" vertex="1" parent="1">
          <mxGeometry x="295" y="608" width="30" height="30" as="geometry" />
        </mxCell>
      </root>
    </mxGraphModel>
  </diagram>
</mxfile>
